<?xml version="1.0" encoding="UTF-8"?>
<svg version="1.1" xmlns="http://www.w3.org/2000/svg" width="400" height="306">
<path d="M0 0 C132 0 264 0 400 0 C400 100.98 400 201.96 400 306 C268 306 136 306 0 306 C0 205.02 0 104.04 0 0 Z " fill="#000000" transform="translate(0,0)"/>
<path d="M0 0 C6.25175801 4.48668972 11.68329427 9.97352734 14.25 17.3125 C14.91 17.3125 15.57 17.3125 16.25 17.3125 C16.45625 16.6525 16.6625 15.9925 16.875 15.3125 C20.89074158 6.550882 26.83433894 1.8046434 35.25 -2.6875 C36.05953125 -3.12449219 36.8690625 -3.56148438 37.703125 -4.01171875 C49.30484828 -9.21060418 64.73231743 -8.17891773 76.43359375 -3.875 C77.82771484 -3.2871875 77.82771484 -3.2871875 79.25 -2.6875 C80.12785156 -2.336875 81.00570312 -1.98625 81.91015625 -1.625 C88.82153401 1.45147109 93.81991254 6.14098813 99.25 11.3125 C100.63924447 12.52840293 102.03462333 13.73735118 103.4375 14.9375 C105.9428489 17.10846967 108.2766211 19.35036884 110.5625 21.75 C119.77732214 31.04859325 129.82914881 37.60206464 143.125 37.875 C154.53907286 37.73481078 162.87704528 33.61420434 171.0546875 25.8046875 C173.94432775 22.52427739 176.07051899 19.04772973 178.09375 15.18359375 C178.4753125 14.56613281 178.856875 13.94867188 179.25 13.3125 C179.91 13.3125 180.57 13.3125 181.25 13.3125 C179.58849886 38.65039235 159.9623732 57.98169191 142.25 74.3125 C139.05284726 76.97118491 135.86192241 79.25927548 132.25 81.3125 C131.02603516 82.00859375 131.02603516 82.00859375 129.77734375 82.71875 C110.15725783 93.15044947 87.35207987 92.41554511 66.56884766 86.06103516 C46.86754349 79.70135959 26.44228944 69.32319661 16.25 50.3125 C16.25 49.6525 16.25 48.9925 16.25 48.3125 C15.59 48.3125 14.93 48.3125 14.25 48.3125 C14.02183594 49.18132812 13.79367188 50.05015625 13.55859375 50.9453125 C12.08762343 54.73031674 10.06355233 57.28844953 7.3125 60.1875 C6.82160889 60.70924805 6.33071777 61.23099609 5.82495117 61.76855469 C-10.37646027 78.55237827 -36.52532419 89.77597062 -59.7890625 90.515625 C-81.8343157 90.82814241 -97.89890875 86.21270988 -114.75 71.3125 C-115.83028731 70.45448419 -116.91303915 69.59954571 -118 68.75 C-121.61620293 65.54472922 -124.63163252 61.99514349 -127.75 58.3125 C-128.62269531 57.32765625 -129.49539062 56.3428125 -130.39453125 55.328125 C-140.45858907 43.89556372 -151.54724457 29.3057092 -150.75 13.3125 C-150.09 13.3125 -149.43 13.3125 -148.75 13.3125 C-147.48828125 15.25390625 -147.48828125 15.25390625 -146.0625 17.875 C-140.71624119 27.0400151 -132.98125638 34.01209472 -122.75 37.3125 C-107.32041396 39.04392326 -97.25218752 35.64256537 -84.9375 25.9375 C-81.61082099 23.07500876 -78.49428281 20.08418818 -75.4375 16.9375 C-55.45324375 -3.43930414 -26.76080561 -16.25571779 0 0 Z " fill="#FCFCFC" transform="translate(184.75,113.6875)"/>
<path d="M0 0 C0.66 0 1.32 0 2 0 C1.52432875 7.25398658 -0.29466594 13.26812223 -3 20 C-5.01822917 19.70703125 -7.03645833 19.4140625 -9.0546875 19.12109375 C-11.08140667 18.8315703 -11.08140667 18.8315703 -13 20 C-13.66 19.34 -14.32 18.68 -15 18 C-14.50371094 17.62230469 -14.00742187 17.24460938 -13.49609375 16.85546875 C-8.20392361 12.56750546 -4.85192546 8.04646655 -1.4453125 2.16015625 C-0.96835937 1.44730469 -0.49140625 0.73445313 0 0 Z " fill="#EFEFEF" transform="translate(364,127)"/>
<path d="M0 0 C4.29 0 8.58 0 13 0 C13 3.96 13 7.92 13 12 C12.34 11.01 11.68 10.02 11 9 C7.8474009 4.32948282 5.14802145 2.88100784 0 1 C0 0.67 0 0.34 0 0 Z " fill="#F3F3F3" transform="translate(387,0)"/>
<path d="M0 0 C3.63 0 7.26 0 11 0 C10.2575 0.556875 9.515 1.11375 8.75 1.6875 C5.13285278 4.72919198 2.61093087 8.08360369 0 12 C0 8.04 0 4.08 0 0 Z " fill="#F7F7F7" transform="translate(0,0)"/>
<path d="M0 0 C0.66 0 1.32 0 2 0 C2.86646667 1.43011973 3.71781829 2.86940619 4.5625 4.3125 C5.03816406 5.11300781 5.51382813 5.91351563 6.00390625 6.73828125 C7 9 7 9 6 12 C4.68 12 3.36 12 2 12 C0.40861915 7.82262526 -0.21278058 4.46839215 0 0 Z " fill="#EEEEEE" transform="translate(34,127)"/>
<path d="M0 0 C4 5 4 5 8 10 C5.36 10 2.72 10 0 10 C0 6.7 0 3.4 0 0 Z " fill="#ECECEC" transform="translate(0,296)"/>
<path d="M0 0 C0.33 0 0.66 0 1 0 C1 3.63 1 7.26 1 11 C-1.64 11 -4.28 11 -7 11 C-6.34 10.01 -5.68 9.02 -5 8 C-4.34 8 -3.68 8 -3 8 C-1.92474806 5.34771188 -0.90543849 2.71631546 0 0 Z " fill="#EEEEEE" transform="translate(399,295)"/>
<path d="M0 0 C0.99 0.33 1.98 0.66 3 1 C1.87895467 2.31587941 0.75303035 3.62760353 -0.375 4.9375 C-1.00148438 5.66839844 -1.62796875 6.39929688 -2.2734375 7.15234375 C-4 9 -4 9 -6 10 C-6.33 8.68 -6.66 7.36 -7 6 C-6.34 6 -5.68 6 -5 6 C-4.67 5.01 -4.34 4.02 -4 3 C-2.125 1.25 -2.125 1.25 0 0 Z " fill="#101010" transform="translate(357,134)"/>
<path d="M0 0 C0.33 0.99 0.66 1.98 1 3 C0.01 3.495 0.01 3.495 -1 4 C-1.99 5.485 -1.99 5.485 -3 7 C-3.99 7.495 -3.99 7.495 -5 8 C-5 7.34 -5 6.68 -5 6 C-5.99 6.33 -6.98 6.66 -8 7 C-8 6.34 -8 5.68 -8 5 C-6.25 3.7109375 -6.25 3.7109375 -4 2.375 C-3.2575 1.92898437 -2.515 1.48296875 -1.75 1.0234375 C-1.1725 0.68570313 -0.595 0.34796875 0 0 Z " fill="#E4E4E4" transform="translate(95,143)"/>
<path d="M0 0 C1.32 0.66 2.64 1.32 4 2 C3.34 3.32 2.68 4.64 2 6 C0.35 5.01 -1.3 4.02 -3 3 C-2.01 2.01 -1.02 1.02 0 0 Z " fill="#ECECEC" transform="translate(218,178)"/>
<path d="M0 0 C0 3.10551666 -0.5393715 4.35261084 -2 7 C-4 7 -4 7 -7 6 C-4.69 4.02 -2.38 2.04 0 0 Z " fill="#1A1A1A" transform="translate(188,177)"/>
<path d="M0 0 C-2.05233685 2.2477975 -3.00667261 3.0022242 -6 4 C-6.33 3.01 -6.66 2.02 -7 1 C-3.375 -1.125 -3.375 -1.125 0 0 Z " fill="#ECECEC" transform="translate(178,185)"/>
<path d="M0 0 C1.65 1.65 3.3 3.3 5 5 C4.01 5 3.02 5 2 5 C1.01 5.33 0.02 5.66 -1 6 C-0.67 4.02 -0.34 2.04 0 0 Z " fill="#1A1A1A" transform="translate(66,181)"/>
</svg>
