<?xml version="1.0" encoding="UTF-8" standalone="no"?>
<svg
   xmlns:dc="http://purl.org/dc/elements/1.1/"
   xmlns:cc="http://creativecommons.org/ns#"
   xmlns:rdf="http://www.w3.org/1999/02/22-rdf-syntax-ns#"
   xmlns:svg="http://www.w3.org/2000/svg"
   xmlns="http://www.w3.org/2000/svg"
   viewBox="0 0 944.88 642.52002"
   height="642.52002"
   width="944.88"
   xml:space="preserve"
   id="svg2"
   version="1.1"><metadata
     id="metadata8"><rdf:RDF><cc:Work
         rdf:about=""><dc:format>image/svg+xml</dc:format><dc:type
           rdf:resource="http://purl.org/dc/dcmitype/StillImage" /></cc:Work></rdf:RDF></metadata><defs
     id="defs6"><clipPath
       id="clipPath26"
       clipPathUnits="userSpaceOnUse"><path
         id="path24"
         d="M 0,481.89 H 708.66 V 0 H 0 Z" /></clipPath></defs><g
     transform="matrix(1.3333333,0,0,-1.3333333,0,642.52)"
     id="g10"><g
       transform="translate(31.3403,301.7007)"
       id="g12"><path
         id="path14"
         style="fill:#231f20;fill-opacity:1;fill-rule:nonzero;stroke:none"
         d="M 0,0 -28.34,-115.664 H 376.693 L 406.345,0 Z" /></g><g
       transform="translate(436.7695,301.7007)"
       id="g16"><path
         id="path18"
         style="fill:#ae1a1e;fill-opacity:1;fill-rule:nonzero;stroke:none"
         d="M 0,0 -29.654,-115.664 H 203.309 L 232.17,0 Z" /></g><g
       id="g20"><g
         clip-path="url(#clipPath26)"
         id="g22"><g
           transform="translate(503.2832,218.8145)"
           id="g28"><path
             id="path30"
             style="fill:#fffeff;fill-opacity:1;fill-rule:nonzero;stroke:none"
             d="m 0,0 -2.477,-3.419 c 0,0 -2.947,2.829 -6.955,1.179 0,0 -4.006,-1.296 -5.89,-6.601 0,0 -1.297,-5.893 4.595,-6.246 0,0 3.536,0.472 5.188,1.65 l 0.588,-3.536 c 0,0 -10.02,-5.775 -14.377,2.121 0,0 -4.01,8.839 7.894,15.913 0,0 6.719,3.298 11.434,-1.061" /></g><g
           transform="translate(561.3887,207.9707)"
           id="g32"><path
             id="path34"
             style="fill:#fefffd;fill-opacity:1;fill-rule:nonzero;stroke:none"
             d="m 0,0 c 0,0 -3.184,-5.658 -9.193,-3.654 0,0 -5.893,2.592 0,9.783 0,0 1.65,2.829 6.363,3.064 0,0 8.369,-0.589 2.83,-9.193 m 2.711,12.258 c -7.545,2.474 -12.732,-1.887 -12.732,-1.887 -6.362,-4.478 -6.008,-10.137 -6.008,-10.137 -1.063,-8.72 8.72,-8.401 8.72,-8.401 6.246,0.438 10.02,5.103 10.02,5.103 8.131,10.489 0,15.322 0,15.322" /></g><g
           transform="translate(523.7891,220.6406)"
           id="g36"><path
             id="path38"
             style="fill:#ffffff;fill-opacity:1;fill-rule:nonzero;stroke:none"
             d="m 0,0 -1.117,-3.771 h 4.064 l -4.89,-16.958 h 4.185 l 5.069,16.838 h 4.064 L 13.557,0 Z" /></g><g
           transform="translate(430.9746,220.6406)"
           id="g40"><path
             id="path42"
             style="fill:#ffffff;fill-opacity:1;fill-rule:nonzero;stroke:none"
             d="M 0,0 -6.129,-20.729 H 5.422 l 2.002,3.639 -8.19,0.059 1.412,5.422 h 7.133 l 1.239,3.18 h -7.25 l 1.65,5.306 h 7.307 L 12.551,0 Z" /></g><g
           transform="translate(455.1953,209.0898)"
           id="g44"><path
             id="path46"
             style="fill:#fffeff;fill-opacity:1;fill-rule:nonzero;stroke:none"
             d="m 0,0 c -2.416,-4.303 -6.748,-5.129 -6.748,-5.129 h -1.916 l 3.832,13.202 h 2.531 C 3.182,6.011 0,0 0,0 m -0.531,11.551 h -7.485 l -6.07,-20.73 h 6.955 c 0,0 8.604,1.4 11.608,8.648 0,0 4.658,9.665 -5.008,12.082" /></g><g
           transform="translate(467.041,220.6406)"
           id="g48"><path
             id="path50"
             style="fill:#ffffff;fill-opacity:1;fill-rule:nonzero;stroke:none"
             d="m 0,0 -4.186,-13.791 c 0,0 -1.296,-5.127 2.592,-6.13 0,0 1.11,-0.617 4.033,-0.808 0,0 2.51,0.102 4.456,1.045 0,0 2.947,1.239 4.537,4.244 L 16.146,0 H 11.785 L 7.953,-13.379 c 0,0 -1.471,-3.771 -4.771,-3.301 0,0 -3.657,-0.056 -3.006,2.889 L 4.42,0 Z" /></g><g
           transform="translate(540.291,220.6406)"
           id="g52"><path
             id="path54"
             style="fill:#ffffff;fill-opacity:1;fill-rule:nonzero;stroke:none"
             d="m 0,0 -5.893,-20.837 h 4.479 L 4.715,0 Z" /></g><g
           transform="translate(567.9902,199.8037)"
           id="g56"><path
             id="path58"
             style="fill:#fefffa;fill-opacity:1;fill-rule:nonzero;stroke:none"
             d="m 0,0 6.01,20.837 h 5.068 l 5.067,-14.91 4.244,14.91 H 24.75 L 18.385,0 H 13.789 L 8.602,15.237 4.479,0 Z" /></g><g
           transform="translate(510.0605,208.9121)"
           id="g60"><path
             id="path62"
             style="fill:#ffffff;fill-opacity:1;fill-rule:nonzero;stroke:none"
             d="M 0,0 4.773,7.544 V 0 Z M 9.488,-9.001 8.191,11.729 H 3.594 L -9.488,-9.001 h 4.715 l 3.418,5.937 h 6.128 v -5.937 z" /></g><g
           transform="translate(456.1211,250.9067)"
           id="g64"><path
             id="path66"
             style="fill:#ffffff;fill-opacity:1;fill-rule:nonzero;stroke:none"
             d="m 0,0 -2.498,-3.453 c 0,0 -2.979,2.857 -7.025,1.19 0,0 -4.049,-1.308 -5.954,-6.667 0,0 -1.31,-5.952 4.645,-6.309 0,0 3.57,0.477 5.238,1.667 L -5,-17.144 c 0,0 -10.117,-5.833 -14.523,2.144 0,0 -4.047,8.928 7.976,16.071 0,0 6.785,3.334 11.547,-1.071" /></g><g
           transform="translate(472.3125,239.9541)"
           id="g68"><path
             id="path70"
             style="fill:#fefffd;fill-opacity:1;fill-rule:nonzero;stroke:none"
             d="m 0,0 c 0,0 -3.213,-5.715 -9.287,-3.69 0,0 -5.951,2.618 0,9.88 0,0 1.668,2.858 6.43,3.096 0,0 8.453,-0.595 2.857,-9.286 m 2.738,12.38 c -7.619,2.502 -12.857,-1.904 -12.857,-1.904 -6.428,-4.524 -6.072,-10.239 -6.072,-10.239 -1.071,-8.809 8.81,-8.486 8.81,-8.486 6.309,0.443 10.119,5.153 10.119,5.153 8.215,10.596 0,15.476 0,15.476" /></g><g
           transform="translate(478.0273,232.334)"
           id="g72"><path
             id="path74"
             style="fill:#ffffff;fill-opacity:1;fill-rule:nonzero;stroke:none"
             d="m 0,0 8.928,20.417 h 4.406 L 13.57,5.536 23.334,20.417 h 4.227 L 24.166,-0.238 H 20.059 L 22.857,13.69 13.779,-0.238 H 10.236 L 9.822,13.929 3.986,-0.238 H 0 Z" /></g><g
           transform="translate(520.1113,246.0845)"
           id="g76"><path
             id="path78"
             style="fill:#ffffff;fill-opacity:1;fill-rule:nonzero;stroke:none"
             d="m 0,0 c -1.547,-2.797 -3.154,-2.74 -3.154,-2.74 h -0.477 -3.154 l 1.816,6.192 h 3.006 C 1.07,2.976 0,0 0,0 m 1.131,6.667 h -9.404 l -6.25,-20.656 h 4.226 l 2.619,8.095 h 5.715 c 4.285,0.596 5.774,5.298 5.774,5.298 2.738,6.131 -2.68,7.263 -2.68,7.263" /></g><g
           transform="translate(529.2207,252.7515)"
           id="g80"><path
             id="path82"
             style="fill:#ffffff;fill-opacity:1;fill-rule:nonzero;stroke:none"
             d="M 0,0 H 4.463 L 0.414,-13.037 c 0,0 -1.309,-4.225 2.502,-4.166 0,0 2.381,-0.418 4.465,2.381 L 11.965,0 h 4.344 l -4.584,-15.001 c 0,0 -1.905,-3.81 -4.821,-4.881 0,0 -3.037,-1.311 -4.883,-1.012 0,0 -4.701,0.477 -6.128,3.274 0,0 -0.834,3.275 0.773,6.429 z" /></g><g
           transform="translate(548.2676,252.7515)"
           id="g84"><path
             id="path86"
             style="fill:#ffffff;fill-opacity:1;fill-rule:nonzero;stroke:none"
             d="m 0,0 -1.131,-3.81 h 4.108 l -4.942,-17.129 h 4.227 l 5.119,17.01 h 4.105 L 13.689,0 Z" /></g><g
           transform="translate(564.1602,252.7515)"
           id="g88"><path
             id="path90"
             style="fill:#ffffff;fill-opacity:1;fill-rule:nonzero;stroke:none"
             d="M 0,0 -6.189,-20.939 H 5.477 l 2.025,3.677 -8.275,0.059 1.427,5.476 h 7.203 l 1.25,3.214 h -7.32 l 1.666,5.358 h 7.383 L 12.68,0 Z" /></g><g
           transform="translate(588.2676,246.3823)"
           id="g92"><path
             id="path94"
             style="fill:#ffffff;fill-opacity:1;fill-rule:nonzero;stroke:none"
             d="M 0,0 C -1.727,-2.739 -3.154,-2.679 -3.154,-2.679 H -6.25 l 1.787,5.953 h 3.035 C 0.832,2.56 0,0 0,0 m 3.395,5.297 c 0,0 -1.25,1.012 -1.788,1.072 h -9.462 l -6.131,-20.939 h 4.226 l 2.739,8.915 3.091,-8.915 H 1.43 L -3.332,-5 c 0,0 3.75,0.118 6.012,3.095 0,0 3.037,4.464 0.715,7.202" /></g><g
           transform="translate(76.2974,237.8154)"
           id="g96"><path
             id="path98"
             style="fill:#eeb111;fill-opacity:1;fill-rule:nonzero;stroke:none"
             d="M 0,0 -0.356,22.792 -12.208,0 Z M 15.098,-23.368 H -0.105 l -0.574,13.217 h -16.164 l -7.039,-13.217 h -15.366 l 34.347,58.051 h 14.79 z" /></g><g
           transform="translate(129.9409,234.1543)"
           id="g100"><path
             id="path102"
             style="fill:#eeb111;fill-opacity:1;fill-rule:nonzero;stroke:none"
             d="m 0,0 c 0.906,3.604 0.745,6.323 -0.466,8.152 -1.217,1.83 -3.224,2.745 -6.031,2.745 -2.094,0 -4.023,-0.951 -5.757,-2.832 -1.738,-1.884 -3.044,-4.571 -3.922,-8.065 -0.863,-3.44 -0.87,-6.072 -0.034,-7.902 0.839,-1.83 2.465,-2.744 4.89,-2.744 2.533,0 4.862,0.986 6.967,2.954 C -2.242,-5.723 -0.791,-3.16 0,0 m 13.509,0.334 c -1.613,-6.436 -4.725,-11.643 -9.347,-15.642 -4.341,-3.714 -8.989,-5.569 -13.964,-5.569 -2.543,0 -4.69,0.499 -6.436,1.496 -1.374,0.775 -2.659,1.998 -3.869,3.659 l -3.516,-14.063 -14.475,-6.129 14.208,56.794 h 12.378 l -1.187,-4.743 c 1.721,1.72 3.764,3.089 6.121,4.116 2.363,1.024 4.836,1.539 7.421,1.539 5.394,0 9.269,-1.896 11.635,-5.696 2.363,-3.802 2.71,-9.056 1.031,-15.762" /></g><g
           transform="translate(179.3296,255.0347)"
           id="g104"><path
             id="path106"
             style="fill:#eeb111;fill-opacity:1;fill-rule:nonzero;stroke:none"
             d="m 0,0 -6.013,-10.481 h -5.019 l -7.531,-30.106 H -31.5 l 7.531,30.106 h -6.068 L -4.4,15.991 -8.402,0 Z" /></g><g
           transform="translate(206.4126,243.2285)"
           id="g108"><path
             id="path110"
             style="fill:#eeb111;fill-opacity:1;fill-rule:nonzero;stroke:none"
             d="m 0,0 c -0.273,1.078 -1.016,1.967 -2.208,2.676 -1.196,0.704 -2.631,1.058 -4.302,1.058 -2.746,0 -5.391,-1.08 -7.927,-3.25 -2.543,-2.161 -4.101,-4.432 -4.701,-6.82 -0.084,-0.338 -0.127,-0.725 -0.144,-1.168 -0.01,-0.445 -0.022,-0.892 -0.028,-1.33 z m 12.064,-3.504 -29.355,-13.555 c 0.577,-0.72 1.066,-1.243 1.469,-1.58 1.242,-1.054 2.616,-1.578 4.131,-1.578 2.207,0 4.365,0.776 6.483,2.324 0.661,0.497 1.51,1.307 2.545,2.411 l 7.242,-5.326 c -5.884,-6.26 -12.568,-9.396 -20.065,-9.396 -5.93,0 -10.392,1.974 -13.398,5.921 -3.127,4.11 -3.866,9.417 -2.242,15.916 1.515,6.057 4.834,11.141 9.969,15.256 5.121,4.107 10.539,6.166 16.252,6.166 5.02,0 9.049,-1.508 12.093,-4.52 3.05,-3.007 4.673,-7.021 4.876,-12.039" /></g><g
           transform="translate(260.3877,252.9556)"
           id="g112"><path
             id="path114"
             style="fill:#eeb111;fill-opacity:1;fill-rule:nonzero;stroke:none"
             d="m 0,0 -5.836,-10.067 c -0.405,0.331 -0.762,0.608 -1.08,0.83 -1.937,1.333 -4.063,1.996 -6.38,1.996 -2.589,0 -5.125,-1.091 -7.616,-3.286 -2.487,-2.193 -4.103,-4.78 -4.851,-7.777 -0.742,-2.941 -0.35,-5.419 1.167,-7.443 1.513,-2.027 3.699,-3.036 6.556,-3.036 1.672,0 3.512,0.359 5.526,1.081 0.652,0.217 1.499,0.578 2.536,1.084 l 0.844,-9.235 c -1.679,-0.89 -3.085,-1.555 -4.213,-1.999 -3.522,-1.327 -7.106,-1.991 -10.773,-1.991 -5.45,0 -9.672,2.116 -12.687,6.36 -3.006,4.244 -3.764,9.326 -2.281,15.262 1.483,5.936 4.799,11.047 9.946,15.348 5.142,4.295 10.707,6.448 16.693,6.448 3.236,0 6.267,-0.584 9.104,-1.754 C -2.421,1.438 -1.302,0.828 0,0" /></g><g
           transform="translate(296.5054,214.4473)"
           id="g116"><path
             id="path118"
             style="fill:#eeb111;fill-opacity:1;fill-rule:nonzero;stroke:none"
             d="m 0,0 h -12.942 l 5.936,23.715 c 0.485,1.938 0.31,3.514 -0.518,4.737 -0.829,1.209 -2.184,1.819 -4.069,1.819 -2.32,0 -4.317,-0.622 -6.003,-1.864 -1.69,-1.245 -2.809,-2.974 -3.368,-5.186 L -26.771,0 H -39.79 l 13.183,52.677 14.724,6.812 -5.877,-23.481 c 1.486,1.64 3.52,3.024 6.091,4.146 2.57,1.117 5.072,1.682 7.499,1.682 4.474,0 7.716,-1.249 9.738,-3.742 2.019,-2.484 2.493,-5.89 1.406,-10.212 z" /></g><g
           transform="translate(354.356,201.4678)"
           id="g120"><path
             id="path122"
             style="fill:#eeb111;fill-opacity:1;fill-rule:nonzero;stroke:none"
             d="m 0,0 c 0.652,0.478 1.121,0.823 1.121,0.823 8.537,5.563 7.736,8.496 7.832,9.64 -0.411,19.321 -16.452,20.042 -16.452,20.042 -4.747,-0.012 -6.08,-6.236 -6.08,-6.236 -0.935,-4.417 1.711,-10.819 1.711,-10.819 0.752,-3.08 -0.444,-4.519 -0.939,-5.453 0,0 5.568,-0.785 8.492,-4.775 0,0 2.335,-2.581 4.315,-3.222" /></g><g
           transform="translate(366.5801,269.0186)"
           id="g124"><path
             id="path126"
             style="fill:#808285;fill-opacity:1;fill-rule:nonzero;stroke:none"
             d="m 0,0 c -1.977,-8.726 -7.996,-14.778 -13.438,-13.493 -5.444,1.279 -8.26,9.4 -6.285,18.127 1.981,8.74 7.997,14.768 13.438,13.493 C -0.844,16.846 1.971,8.723 0,0" /></g><g
           transform="translate(387.8789,254.6694)"
           id="g128"><path
             id="path130"
             style="fill:#808285;fill-opacity:1;fill-rule:nonzero;stroke:none"
             d="m 0,0 c -5.541,-6.979 -13.652,-9.648 -18.107,-5.963 -4.483,3.692 -3.614,12.342 1.919,19.312 5.538,6.977 13.643,9.638 18.116,5.96 C 6.393,15.628 5.533,6.975 0,0" /></g><g
           transform="translate(391.7832,223.6563)"
           id="g132"><path
             id="path134"
             style="fill:#808285;fill-opacity:1;fill-rule:nonzero;stroke:none"
             d="m 0,0 c -5.484,-6.142 -13.266,-8.008 -17.393,-4.17 -4.117,3.831 -3.021,11.905 2.448,18.033 5.484,6.139 13.259,8.008 17.388,4.178 C 6.566,14.209 5.467,6.127 0,0" /></g><g
           transform="translate(342.1587,258.6929)"
           id="g136"><path
             id="path138"
             style="fill:#808285;fill-opacity:1;fill-rule:nonzero;stroke:none"
             d="m 0,0 c 0.39,-8.082 -3.823,-14.845 -9.392,-15.134 -5.577,-0.273 -10.408,6.063 -10.787,14.138 -0.379,8.071 3.822,14.849 9.392,15.12 C -5.206,14.397 -0.382,8.073 0,0" /></g><g
           transform="translate(365.916,233.7158)"
           id="g140"><path
             id="path142"
             style="fill:#808285;fill-opacity:1;fill-rule:nonzero;stroke:none"
             d="M 0,0 C -5.51,14.091 -17.51,10.25 -17.51,10.25 -34.418,5.268 -41.928,-5.279 -41.928,-5.279 c -11.498,-16.388 15.919,-18.913 15.919,-18.913 0.528,-0.059 0.861,0 1.642,-0.059 0.495,0.934 1.691,2.373 0.939,5.453 0,0 -2.646,6.402 -1.711,10.819 0,0 1.333,6.224 6.08,6.236 0,0 16.041,-0.721 16.452,-20.042 -0.096,-1.144 0.705,-4.077 -7.832,-9.64 0,0 -0.469,-0.346 -1.121,-0.823 12.505,-5.345 15.583,7.054 15.583,7.054 C 6.898,-12.894 0,0 0,0" /></g><g
           transform="translate(355.2041,241.292)"
           id="g144"><path
             id="path146"
             style="fill:#eeb111;fill-opacity:1;fill-rule:nonzero;stroke:none"
             d="m 0,0 c -1.663,1.298 -4.417,0.436 -6.157,-1.896 -1.744,-2.337 -1.819,-5.263 -0.168,-6.554 1.656,-1.296 4.418,-0.436 6.16,1.895 C 1.589,-4.228 1.658,-1.282 0,0" /></g><g
           transform="translate(361.5625,231.1113)"
           id="g148"><path
             id="path150"
             style="fill:#eeb111;fill-opacity:1;fill-rule:nonzero;stroke:none"
             d="M 0,0 C 1.336,1.773 1.436,3.99 0.215,4.941 -0.994,5.886 -3.067,5.198 -4.395,3.414 -5.734,1.624 -5.83,-0.588 -4.619,-1.523 -3.404,-2.477 -1.332,-1.791 0,0" /></g><g
           transform="translate(365.0586,225.5449)"
           id="g152"><path
             id="path154"
             style="fill:#eeb111;fill-opacity:1;fill-rule:nonzero;stroke:none"
             d="M 0,0 C 1.156,1.545 1.238,3.477 0.154,4.314 -0.92,5.156 -2.732,4.576 -3.887,3.029 -5.047,1.482 -5.111,-0.447 -4.029,-1.288 -2.953,-2.129 -1.16,-1.546 0,0" /></g><g
           transform="translate(366.8301,219.6133)"
           id="g156"><path
             id="path158"
             style="fill:#eeb111;fill-opacity:1;fill-rule:nonzero;stroke:none"
             d="M 0,0 C 1.156,1.146 1.426,2.777 0.607,3.627 -0.219,4.493 -1.811,4.26 -2.957,3.11 -4.113,1.964 -4.393,0.347 -3.563,-0.513 -2.75,-1.371 -1.154,-1.137 0,0" /></g><g
           transform="translate(368.4121,216.9453)"
           id="g160"><path
             id="path162"
             style="fill:#eeb111;fill-opacity:1;fill-rule:nonzero;stroke:none"
             d="m 0,0 c -0.65,0.813 -2.063,0.77 -3.135,-0.125 -1.074,-0.9 -1.41,-2.288 -0.761,-3.113 0.664,-0.826 2.064,-0.776 3.142,0.124 C 0.313,-2.226 0.66,-0.818 0,0" /></g><g
           transform="translate(42.9468,179.6855)"
           id="g164"><path
             id="path166"
             style="fill:#231f20;fill-opacity:1;fill-rule:nonzero;stroke:none"
             d="m 0,0 -3.354,-11.334 c -0.555,-1.842 -1.59,-3.303 -3.116,-4.389 -1.524,-1.083 -3.292,-1.631 -5.315,-1.631 -1.778,0 -3.124,0.409 -4.033,1.217 -0.911,0.805 -1.3,1.926 -1.174,3.363 0.022,0.26 0.07,0.535 0.144,0.82 0.073,0.286 0.119,0.491 0.153,0.62 L -13.34,0 h 3.495 l -3.295,-11.136 c -0.047,-0.129 -0.086,-0.285 -0.109,-0.467 -0.036,-0.18 -0.056,-0.333 -0.064,-0.461 -0.135,-1.534 0.667,-2.303 2.418,-2.303 0.982,0 1.843,0.284 2.568,0.859 0.732,0.568 1.252,1.362 1.563,2.372 L -3.468,0 Z" /></g><g
           transform="translate(55.0869,170.6074)"
           id="g168"><path
             id="path170"
             style="fill:#231f20;fill-opacity:1;fill-rule:nonzero;stroke:none"
             d="m 0,0 -2.395,-8.004 h -3.176 l 2.142,7.098 c 0.074,0.275 0.123,0.528 0.144,0.76 0.098,1.124 -0.496,1.687 -1.779,1.687 -0.744,0 -1.457,-0.268 -2.135,-0.811 -0.678,-0.535 -1.132,-1.187 -1.359,-1.955 l -2.002,-6.779 h -3.184 l 3.202,10.844 3.505,1.566 -0.585,-1.979 c 0.618,0.603 1.283,1.053 1.995,1.349 0.713,0.304 1.497,0.454 2.359,0.454 1.125,0 1.998,-0.234 2.603,-0.71 C 0.02,2.984 0.314,2.195 0.216,1.148 0.209,0.985 0.184,0.803 0.146,0.596 0.115,0.392 0.062,0.195 0,0" /></g><g
           transform="translate(64.5142,180.1338)"
           id="g172"><path
             id="path174"
             style="fill:#231f20;fill-opacity:1;fill-rule:nonzero;stroke:none"
             d="m 0,0 -5.201,-17.53 h -3.172 l 4.749,15.962 z" /></g><g
           transform="translate(73.8296,171.1855)"
           id="g176"><path
             id="path178"
             style="fill:#231f20;fill-opacity:1;fill-rule:nonzero;stroke:none"
             d="m 0,0 c -0.14,0.42 -0.41,0.754 -0.808,1.018 -0.393,0.255 -0.884,0.38 -1.467,0.38 -0.955,0 -1.891,-0.376 -2.816,-1.123 -0.92,-0.751 -1.51,-1.553 -1.762,-2.403 -0.042,-0.133 -0.066,-0.259 -0.077,-0.381 -0.016,-0.127 -0.02,-0.21 -0.024,-0.256 -0.014,-0.133 -0.018,-0.214 -0.021,-0.248 0,-0.015 0,-0.033 -0.006,-0.05 z m 3.088,-0.826 -9.669,-4.307 c 0.183,-0.306 0.346,-0.539 0.501,-0.684 0.465,-0.46 1.026,-0.687 1.686,-0.687 0.773,0 1.563,0.274 2.381,0.832 0.251,0.182 0.583,0.468 0.985,0.858 l 1.782,-1.317 c -0.667,-0.64 -1.24,-1.113 -1.723,-1.43 -1.453,-0.942 -2.955,-1.412 -4.489,-1.412 -1.503,0 -2.695,0.459 -3.583,1.383 -0.875,0.927 -1.257,2.113 -1.124,3.569 0.028,0.424 0.119,0.858 0.251,1.298 0.511,1.721 1.517,3.204 3.037,4.463 1.596,1.326 3.336,1.987 5.21,1.987 1.398,0 2.516,-0.409 3.364,-1.231 C 2.549,1.68 3.008,0.57 3.088,-0.826" /></g><g
           transform="translate(87.1655,168.6328)"
           id="g180"><path
             id="path182"
             style="fill:#231f20;fill-opacity:1;fill-rule:nonzero;stroke:none"
             d="m 0,0 c 0.085,0.262 0.158,0.544 0.217,0.857 0.06,0.307 0.102,0.576 0.123,0.807 0.062,0.696 -0.066,1.201 -0.378,1.51 -0.31,0.31 -0.838,0.467 -1.565,0.467 -0.887,0 -1.701,-0.327 -2.446,-0.967 -0.744,-0.645 -1.285,-1.55 -1.629,-2.72 -0.118,-0.436 -0.192,-0.806 -0.216,-1.097 -0.07,-0.845 0.105,-1.482 0.524,-1.902 0.426,-0.427 0.989,-0.639 1.709,-0.639 0.87,0 1.611,0.297 2.202,0.879 C -0.855,-2.218 -0.369,-1.285 0,0 M 4.977,5.912 1.416,-6.029 H -1.61 l 0.408,1.367 c -0.484,-0.484 -1.113,-0.891 -1.893,-1.221 -0.776,-0.326 -1.572,-0.49 -2.383,-0.49 -1.39,0 -2.425,0.436 -3.106,1.324 -0.626,0.809 -0.881,1.9 -0.766,3.269 0.054,0.535 0.164,1.111 0.347,1.734 0.524,1.759 1.498,3.228 2.928,4.42 1.436,1.191 2.91,1.786 4.427,1.786 0.81,0 1.484,-0.144 2.026,-0.431 C 0.916,5.445 1.305,5.056 1.535,4.564 l 0.412,1.348 z" /></g><g
           transform="translate(103.5156,173.957)"
           id="g184"><path
             id="path186"
             style="fill:#231f20;fill-opacity:1;fill-rule:nonzero;stroke:none"
             d="m 0,0 -1.405,-2.178 c -0.338,0.231 -0.608,0.403 -0.831,0.516 -0.663,0.342 -1.292,0.513 -1.89,0.513 -0.518,0 -0.989,-0.136 -1.423,-0.403 -0.43,-0.271 -0.696,-0.583 -0.807,-0.944 -0.021,-0.063 -0.039,-0.165 -0.053,-0.293 -0.037,-0.506 0.766,-1.027 2.426,-1.568 1.659,-0.534 2.432,-1.393 2.337,-2.569 -0.013,-0.133 -0.018,-0.261 -0.035,-0.392 -0.062,-0.19 -0.115,-0.34 -0.138,-0.436 -0.323,-1.128 -1.031,-2.064 -2.136,-2.816 -1.202,-0.817 -2.628,-1.225 -4.274,-1.225 -1.101,0 -2.107,0.189 -3.036,0.565 -0.29,0.113 -0.646,0.307 -1.062,0.588 l 1.558,2.469 c 0.262,-0.292 0.496,-0.506 0.696,-0.637 0.628,-0.424 1.345,-0.635 2.137,-0.635 0.7,0 1.304,0.148 1.825,0.451 0.521,0.302 0.845,0.681 0.964,1.139 0.021,0.082 0.035,0.189 0.052,0.316 0.042,0.541 -0.747,1.049 -2.39,1.521 -1.641,0.471 -2.414,1.282 -2.313,2.42 0.015,0.151 0.021,0.303 0.042,0.467 0.064,0.182 0.102,0.301 0.127,0.364 0.299,1.015 0.953,1.88 1.97,2.599 1.139,0.795 2.456,1.193 3.966,1.193 0.964,0 1.874,-0.166 2.714,-0.511 C -0.698,0.4 -0.37,0.231 0,0" /></g><g
           transform="translate(117.1387,170.8701)"
           id="g188"><path
             id="path190"
             style="fill:#231f20;fill-opacity:1;fill-rule:nonzero;stroke:none"
             d="m 0,0 -2.462,-8.267 h -3.181 l 2.188,7.336 c 0.042,0.098 0.067,0.197 0.08,0.294 0.007,0.133 0.015,0.224 0.022,0.269 0.099,1.115 -0.514,1.674 -1.82,1.674 -0.807,0 -1.527,-0.229 -2.142,-0.678 -0.623,-0.449 -1.036,-1.027 -1.241,-1.731 l -2.125,-7.164 h -3.175 L -9.133,7.671 -5.479,9.237 -7.57,2.206 c 0.47,0.414 0.88,0.718 1.218,0.915 1.028,0.615 2.076,0.921 3.163,0.921 1.127,0 2.005,-0.269 2.613,-0.809 C 0.025,2.694 0.292,1.942 0.207,0.976 0.183,0.698 0.109,0.375 0,0" /></g><g
           transform="translate(140.3232,174.5195)"
           id="g192"><path
             id="path194"
             style="fill:#231f20;fill-opacity:1;fill-rule:nonzero;stroke:none"
             d="m 0,0 -11.663,-16.173 h -3.61 l 3.498,4.539 L -13.169,0 h 3.445 L -9.095,-8.148 -3.491,0 Z" /></g><g
           transform="translate(149.1958,168.6113)"
           id="g196"><path
             id="path198"
             style="fill:#231f20;fill-opacity:1;fill-rule:nonzero;stroke:none"
             d="m 0,0 c 0.083,0.242 0.136,0.512 0.171,0.806 0.058,0.78 -0.137,1.428 -0.591,1.95 -0.458,0.519 -1.082,0.781 -1.893,0.781 -0.969,0 -1.876,-0.34 -2.722,-1.014 -0.839,-0.673 -1.419,-1.554 -1.744,-2.647 -0.043,-0.131 -0.084,-0.287 -0.112,-0.47 -0.035,-0.19 -0.055,-0.36 -0.066,-0.504 -0.074,-0.845 0.115,-1.496 0.583,-1.952 0.461,-0.456 1.077,-0.682 1.855,-0.682 0.969,0 1.88,0.341 2.743,1.024 C -0.918,-2.027 -0.326,-1.121 0,0 m 3.05,-0.074 c -0.516,-1.709 -1.55,-3.18 -3.078,-4.42 -1.635,-1.32 -3.387,-1.977 -5.263,-1.977 -1.523,0 -2.738,0.473 -3.651,1.429 -0.912,0.948 -1.3,2.165 -1.17,3.651 0.034,0.405 0.119,0.83 0.255,1.267 0.541,1.81 1.641,3.327 3.287,4.567 1.657,1.24 3.341,1.858 5.057,1.858 1.465,0 2.666,-0.485 3.592,-1.453 C 3.008,3.881 3.402,2.654 3.281,1.172 3.263,0.995 3.239,0.793 3.2,0.571 3.165,0.355 3.116,0.137 3.05,-0.074" /></g><g
           transform="translate(168.1587,174.5195)"
           id="g200"><path
             id="path202"
             style="fill:#231f20;fill-opacity:1;fill-rule:nonzero;stroke:none"
             d="m 0,0 -2.289,-7.715 c -0.454,-1.497 -1.272,-2.639 -2.442,-3.418 -1.178,-0.783 -2.708,-1.174 -4.599,-1.174 -1.541,0 -2.687,0.281 -3.449,0.84 -0.754,0.564 -1.082,1.422 -0.989,2.578 0.015,0.178 0.039,0.367 0.074,0.565 0.027,0.189 0.087,0.396 0.148,0.609 L -11.249,0 h 3.176 l -2.155,-7.227 c -0.094,-0.353 -0.15,-0.597 -0.157,-0.732 -0.101,-1.106 0.525,-1.66 1.87,-1.66 1.641,0 2.707,0.801 3.185,2.392 L -3.177,0 Z" /></g><g
           transform="translate(179.2632,174.7441)"
           id="g204"><path
             id="path206"
             style="fill:#231f20;fill-opacity:1;fill-rule:nonzero;stroke:none"
             d="m 0,0 -1.604,-3.062 c -0.077,0.018 -0.141,0.023 -0.188,0.023 -0.381,0.084 -0.605,0.123 -0.665,0.123 -0.716,0 -1.419,-0.252 -2.11,-0.759 -0.797,-0.586 -1.334,-1.362 -1.628,-2.321 l -1.814,-6.145 h -3.179 l 3.221,10.822 3.505,1.589 -0.647,-2.149 c 0.503,0.582 1.143,1.056 1.915,1.429 0.772,0.361 1.59,0.544 2.449,0.544 0.099,0 0.213,-0.008 0.351,-0.022 C -0.257,0.054 -0.127,0.03 0,0" /></g><g
           transform="translate(195.1025,168.376)"
           id="g208"><path
             id="path210"
             style="fill:#231f20;fill-opacity:1;fill-rule:nonzero;stroke:none"
             d="m 0,0 c 0.066,0.183 0.109,0.372 0.15,0.565 0.032,0.196 0.056,0.401 0.077,0.612 0.065,0.834 -0.086,1.482 -0.465,1.957 -0.384,0.474 -0.982,0.713 -1.793,0.713 -1.715,0 -2.949,-1.27 -3.682,-3.799 -0.162,-0.522 -0.259,-1.006 -0.301,-1.465 -0.133,-1.452 0.458,-2.178 1.754,-2.178 0.884,0 1.684,0.274 2.411,0.807 C -0.969,-2.134 -0.354,-1.204 0,0 M 3.337,0.174 C 2.771,-1.701 1.81,-3.215 0.451,-4.354 c -1.367,-1.141 -2.859,-1.713 -4.494,-1.713 -0.937,0 -1.72,0.254 -2.359,0.761 -0.193,0.162 -0.419,0.416 -0.66,0.756 l -1.366,-4.543 -3.589,-1.42 4.965,16.682 h 3.029 l -0.439,-1.42 c 0.563,0.523 1.205,0.938 1.914,1.246 0.716,0.315 1.458,0.467 2.237,0.467 1.278,0 2.279,-0.373 3.004,-1.119 C 3.476,4.519 3.812,3.389 3.687,1.938 3.641,1.444 3.522,0.86 3.337,0.174" /></g><g
           transform="translate(210.5957,168.6113)"
           id="g212"><path
             id="path214"
             style="fill:#231f20;fill-opacity:1;fill-rule:nonzero;stroke:none"
             d="m 0,0 c 0.08,0.242 0.14,0.512 0.164,0.806 0.07,0.78 -0.122,1.428 -0.584,1.95 -0.451,0.519 -1.09,0.781 -1.893,0.781 -0.975,0 -1.873,-0.34 -2.723,-1.014 -0.841,-0.673 -1.424,-1.554 -1.739,-2.647 -0.043,-0.131 -0.084,-0.287 -0.115,-0.47 -0.035,-0.19 -0.057,-0.36 -0.068,-0.504 -0.076,-0.845 0.12,-1.496 0.581,-1.952 0.457,-0.456 1.079,-0.682 1.854,-0.682 0.976,0 1.888,0.341 2.744,1.024 C -0.913,-2.027 -0.325,-1.121 0,0 m 3.047,-0.074 c -0.522,-1.709 -1.545,-3.18 -3.072,-4.42 -1.635,-1.32 -3.396,-1.977 -5.273,-1.977 -1.517,0 -2.732,0.473 -3.644,1.429 -0.904,0.948 -1.292,2.165 -1.17,3.651 0.03,0.405 0.122,0.83 0.254,1.267 0.55,1.81 1.639,3.327 3.295,4.567 1.646,1.24 3.334,1.858 5.05,1.858 1.467,0 2.665,-0.485 3.592,-1.453 C 3.001,3.881 3.41,2.654 3.273,1.172 3.256,0.995 3.232,0.793 3.203,0.571 3.163,0.355 3.114,0.137 3.047,-0.074" /></g><g
           transform="translate(224.2261,174.5195)"
           id="g216"><path
             id="path218"
             style="fill:#231f20;fill-opacity:1;fill-rule:nonzero;stroke:none"
             d="m 0,0 -1.58,-2.542 h -1.595 l -2.81,-9.374 h -3.17 l 2.796,9.374 H -8.054 L -1.121,4.414 -2.421,0 Z" /></g><g
           transform="translate(233.2485,171.1855)"
           id="g220"><path
             id="path222"
             style="fill:#231f20;fill-opacity:1;fill-rule:nonzero;stroke:none"
             d="m 0,0 c -0.141,0.42 -0.413,0.754 -0.811,1.018 -0.39,0.255 -0.887,0.38 -1.464,0.38 -0.958,0 -1.896,-0.376 -2.82,-1.123 -0.923,-0.751 -1.509,-1.553 -1.758,-2.403 -0.041,-0.133 -0.076,-0.259 -0.083,-0.381 -0.01,-0.127 -0.021,-0.21 -0.021,-0.256 -0.011,-0.133 -0.019,-0.214 -0.022,-0.248 0,-0.015 -0.002,-0.033 -0.002,-0.05 z m 3.079,-0.826 -9.662,-4.307 c 0.185,-0.306 0.349,-0.539 0.496,-0.684 0.468,-0.46 1.024,-0.687 1.688,-0.687 0.779,0 1.569,0.274 2.378,0.832 0.26,0.182 0.591,0.468 0.995,0.858 l 1.777,-1.317 c -0.667,-0.64 -1.243,-1.113 -1.726,-1.43 -1.45,-0.942 -2.95,-1.412 -4.487,-1.412 -1.498,0 -2.693,0.459 -3.578,1.383 -0.88,0.927 -1.262,2.113 -1.129,3.569 0.031,0.424 0.113,0.858 0.252,1.298 0.511,1.721 1.517,3.204 3.04,4.463 1.598,1.326 3.334,1.987 5.211,1.987 1.386,0 2.511,-0.409 3.364,-1.231 C 2.547,1.68 3.007,0.57 3.079,-0.826" /></g><g
           transform="translate(250.1489,170.6074)"
           id="g224"><path
             id="path226"
             style="fill:#231f20;fill-opacity:1;fill-rule:nonzero;stroke:none"
             d="m 0,0 -2.396,-8.004 h -3.172 l 2.141,7.098 c 0.073,0.275 0.119,0.528 0.139,0.76 0.099,1.124 -0.495,1.687 -1.777,1.687 -0.737,0 -1.451,-0.268 -2.133,-0.811 -0.675,-0.535 -1.131,-1.187 -1.366,-1.955 l -1.995,-6.779 h -3.183 l 3.198,10.844 3.503,1.566 -0.582,-1.979 c 0.622,0.603 1.282,1.053 1.998,1.349 0.716,0.304 1.499,0.454 2.355,0.454 1.132,0 1.997,-0.234 2.603,-0.71 C 0.018,2.984 0.312,2.195 0.217,1.148 0.207,0.985 0.179,0.803 0.147,0.596 0.112,0.392 0.066,0.195 0,0" /></g><g
           transform="translate(260.6738,174.5195)"
           id="g228"><path
             id="path230"
             style="fill:#231f20;fill-opacity:1;fill-rule:nonzero;stroke:none"
             d="m 0,0 -1.58,-2.542 h -1.606 l -2.799,-9.374 h -3.173 l 2.799,9.374 H -8.054 L -1.12,4.414 -2.425,0 Z" /></g><g
           transform="translate(266.4189,177.6055)"
           id="g232"><path
             id="path234"
             style="fill:#231f20;fill-opacity:1;fill-rule:nonzero;stroke:none"
             d="m 0,0 c -0.137,-0.476 -0.434,-0.898 -0.878,-1.283 -0.446,-0.386 -0.93,-0.578 -1.442,-0.578 -0.469,0 -0.829,0.131 -1.084,0.394 -0.252,0.26 -0.352,0.602 -0.318,1.026 0.007,0.078 0.032,0.203 0.077,0.368 0.157,0.538 0.454,0.983 0.891,1.344 0.434,0.358 0.921,0.54 1.45,0.54 0.444,0 0.793,-0.135 1.049,-0.408 C 0.006,1.135 0.118,0.797 0.08,0.391 0.072,0.291 0.044,0.16 0,0 M -1.069,-2.623 -4.77,-15.002 h -3.173 l 3.215,10.791 z" /></g><g
           transform="translate(275.1743,168.6328)"
           id="g236"><path
             id="path238"
             style="fill:#231f20;fill-opacity:1;fill-rule:nonzero;stroke:none"
             d="m 0,0 c 0.081,0.262 0.161,0.544 0.221,0.857 0.056,0.307 0.09,0.576 0.112,0.807 0.063,0.696 -0.063,1.201 -0.374,1.51 -0.311,0.31 -0.835,0.467 -1.558,0.467 -0.89,0 -1.71,-0.327 -2.453,-0.967 -0.738,-0.645 -1.285,-1.55 -1.633,-2.72 -0.115,-0.436 -0.191,-0.806 -0.212,-1.097 -0.075,-0.845 0.097,-1.482 0.529,-1.902 0.42,-0.427 0.99,-0.639 1.7,-0.639 0.874,0 1.604,0.297 2.212,0.879 C -0.854,-2.218 -0.373,-1.285 0,0 M 4.974,5.912 1.411,-6.029 h -3.033 l 0.418,1.367 c -0.48,-0.484 -1.115,-0.891 -1.892,-1.221 -0.778,-0.326 -1.572,-0.49 -2.379,-0.49 -1.398,0 -2.435,0.436 -3.112,1.324 -0.626,0.809 -0.878,1.9 -0.759,3.269 0.042,0.535 0.157,1.111 0.342,1.734 0.527,1.759 1.499,3.228 2.936,4.42 1.424,1.191 2.9,1.786 4.417,1.786 0.811,0 1.48,-0.144 2.025,-0.431 0.542,-0.284 0.93,-0.673 1.157,-1.165 l 0.412,1.348 z" /></g><g
           transform="translate(288.4146,180.1338)"
           id="g240"><path
             id="path242"
             style="fill:#231f20;fill-opacity:1;fill-rule:nonzero;stroke:none"
             d="M 0,0 -5.203,-17.53 H -8.379 L -3.63,-1.568 Z" /></g><g
           transform="translate(702.582,286.0347)"
           id="g244"><path
             id="path246"
             style="fill:#231f20;fill-opacity:1;fill-rule:nonzero;stroke:none"
             d="M 0,0 H -2.195 V 13.205 H -2.27 L -7.533,0 h -1.434 l -5.117,13.205 H -14.16 V 0 h -2.19 v 15.396 h 3.694 L -8.232,4.315 -3.656,15.396 H 0 Z m -19.314,13.205 h -5.118 V 0 h -2.197 v 13.205 h -5.154 v 2.191 h 12.469 z" /></g></g></g></g></svg>