<?xml version="1.0" encoding="utf-8"?>
<!-- Generator: Adobe Illustrator 26.0.3, SVG Export Plug-In . SVG Version: 6.00 Build 0)  -->
<svg version="1.0" id="katman_1" xmlns="http://www.w3.org/2000/svg" xmlns:xlink="http://www.w3.org/1999/xlink" x="0px" y="0px"
	 viewBox="0 0 600 450" style="enable-background:new 0 0 600 450;" xml:space="preserve">
<style type="text/css">
	.st0{fill:#E52528;}
	.st1{fill:#FFFFFF;}
</style>
<g id="Layer_2">
	<g id="Layer_1-2">
		<path class="st0" d="M223.3,132l-84-6.7l-82.5,6.4c0,0-0.6,18.8-0.6,42c0,119.1,83.6,150.8,83.6,150.8s84.1-31.4,84.1-150.5
			C223.8,150.8,223.2,132,223.3,132"/>
		<path d="M282.8,182.2c0-1.2-3-32.9-3-32.9c-0.3-3.1-0.2-6-0.2-6h-0.1c0,0-0.5,2.8-1.4,6c0,0-8.6,31.3-9.1,32.9h-5.1
			c-0.5-1.5-9-33-9-33c-0.8-3.1-1.4-5.9-1.4-5.9h-0.1c0,0,0,2.8-0.2,5.9c0,0-3,31.5-3,33h-7.5l5.4-49.8h8.9l8.6,31.9
			c0.8,3.2,1.2,5.6,1.2,5.6h0.2c0.3-1.9,0.7-3.7,1.2-5.6l8.8-31.9h8.9l5.4,49.8H282.8z"/>
		<path d="M299.2,143.2h8.5v39h-8.5V143.2z M303.5,136.4c-2.5,0.1-4.6-1.9-4.7-4.3c0,0,0,0,0,0c0.1-2.6,2.4-4.5,4.9-4.4
			c2.4,0.1,4.3,2,4.4,4.4C308.1,134.6,306,136.5,303.5,136.4C303.5,136.4,303.5,136.4,303.5,136.4"/>
		<path d="M337.7,148.3c-1.2-0.3-2.5-0.5-3.8-0.4c-7.4,0-9.9,6.6-9.9,14.8c0,8.8,2.7,14.6,9.3,14.6c1.5,0.1,3-0.2,4.4-0.9
			L337.7,148.3z M333.1,182.8c-11.1,0-17.5-7.4-17.5-19.8c0-12.7,6.7-20.3,16.4-20.3c1.9,0,3.8,0.2,5.6,0.7v-18.1h8.5v54.7
			C343.2,181.8,339,182.9,333.1,182.8"/>
		<path d="M375.9,148.3c-1.2-0.3-2.5-0.5-3.8-0.4c-7.4,0-9.9,6.6-9.9,14.8c0,8.8,2.7,14.6,9.2,14.6c1.5,0.1,3-0.2,4.4-0.9V148.3z
			 M371.3,182.8c-11.1,0-17.5-7.4-17.5-19.8c0-12.7,6.7-20.3,16.4-20.3c1.9,0,3.8,0.2,5.6,0.7v-18.1h8.5v54.7
			C381.4,181.8,377.2,182.9,371.3,182.8"/>
		<rect x="394.2" y="125.3" width="8.5" height="56.8"/>
		<path d="M426.5,147.9c-4.9,0-8.3,4.2-8.1,13.5l15.5-2.4C433.8,151,431.1,147.8,426.5,147.9 M418.8,165.9c0.7,7.2,4,10.9,10.2,10.9
			c3.3,0.1,6.5-0.7,9.5-2.2l2,5.6c-3.8,2-8.1,2.9-12.4,2.7c-10.6,0-17.4-7.2-17.4-20.3c0-12.7,6.2-20.1,16-20.1
			c9.8,0,15.4,6.9,15,20L418.8,165.9z"/>
		<path d="M457.4,182.8c-3.7,0.1-7.3-0.9-10.4-2.8l2.3-5.6c2,1.5,4.5,2.3,7,2.3c3,0.2,5.5-2,5.8-5c0-0.2,0-0.3,0-0.5
			c0-3.3-1.7-4.9-5.5-6.4c-7-2.8-8.5-6.9-8.5-10.9c0-6.2,4.7-11.3,11.9-11.3c3.5-0.1,6.9,0.8,9.7,2.7l-2.1,5.1
			c-1.7-1.4-3.8-2.2-6-2.2c-2.8-0.2-5.1,1.9-5.3,4.6c0,0.2,0,0.3,0,0.5c0,3.2,2.3,4.8,5.6,6.2c7.3,3,9,7,9,11.5
			C470.7,177.3,465.6,182.8,457.4,182.8"/>
		<path d="M492.5,147.9c-5,0-8.4,4.2-8.2,13.5l15.5-2.4C499.9,151,497.2,147.8,492.5,147.9 M484.9,165.9c0.7,7.2,4,10.9,10.2,10.9
			c3.3,0.1,6.5-0.7,9.5-2.2l2,5.6c-3.8,2-8.1,2.9-12.4,2.7c-10.6,0-17.4-7.2-17.4-20.3c0-12.7,6.2-20.1,16-20.1s15.4,6.9,15,20
			L484.9,165.9z"/>
		<polygon points="534.1,143.2 527.5,155.9 527.4,155.9 521,143.2 512.1,143.2 522.6,162 511,182.2 519.6,182.2 526.7,168 
			526.9,168 533.9,182.2 543.2,182.2 531.5,161.4 542.1,143.2 		"/>
		<path d="M260.2,253c-9.4,0-15.8-6.2-15.8-15.3v-35.3h8.8v35.3c0,5.4,3.3,8.2,7.3,8.2s7.3-2.9,7.3-8.2v-35.3h8.2v35.3
			C276,246.7,269.6,252.9,260.2,253"/>
		<path d="M306.5,252.1v-27.7c0-3.2-1.4-6.5-6.8-6.5c-2-0.1-4,0.3-5.8,1.1v33h-8.5v-36.8c4.6-2,9.6-3,14.7-2.8
			c11.2,0,14.9,5.6,14.9,11.9v27.8H306.5z"/>
		<path d="M324.4,213.1h8.5v39h-8.5V213.1z M328.6,206.4c-2.4-0.1-4.3-2.2-4.1-4.6c0.1-2.4,2.2-4.3,4.6-4.1c2.3,0.1,4.1,2.1,4.1,4.4
			C333.2,204.6,331.1,206.5,328.6,206.4"/>
		<path d="M359.4,252.1h-8.1l-12.3-39h9l6.6,25.2c0.5,1.7,0.8,3.5,0.9,5.3h0.2c0.2-1.8,0.5-3.6,1-5.3l6.8-25.2h7.9L359.4,252.1z"/>
		<path d="M390.8,217.8c-5,0-8.4,4.2-8.1,13.5l15.5-2.4C398.2,221.1,395.5,217.9,390.8,217.8 M383.2,235.9c0.7,7.2,4,10.9,10.2,10.9
			c3.3,0.1,6.5-0.7,9.5-2.2l2,5.6c-3.8,2-8.1,2.9-12.4,2.7c-10.7,0-17.4-7.2-17.4-20.3c0-12.7,6.2-20.1,16-20.1
			c9.8,0,15.4,6.9,15,20L383.2,235.9z"/>
		<path d="M430.3,218.9c-2.6-1-5.4-0.9-7.9,0.3v32.9h-8.5v-36.9c3.9-2,8.6-3,18.1-2.7L430.3,218.9z"/>
		<path d="M445.6,252.8c-3.7,0.1-7.3-0.9-10.4-2.8l2.3-5.6c2,1.5,4.5,2.3,7,2.2c3,0.2,5.6-2,5.8-5c0-0.2,0-0.3,0-0.5
			c0-3.3-1.7-4.9-5.5-6.4c-7.1-2.8-8.6-6.9-8.6-10.9c0-6.2,4.7-11.3,11.9-11.3c3.5-0.1,6.9,0.8,9.7,2.7l-2.1,5.1
			c-1.7-1.4-3.8-2.2-6-2.2c-2.8-0.2-5.1,1.9-5.3,4.6c0,0.2,0,0.3,0,0.5c0,3.2,2.3,4.8,5.6,6.2c7.3,3,9,7,9,11.5
			C459,247.3,453.9,252.8,445.6,252.8"/>
		<path d="M466.7,213.1h8.5v39h-8.5V213.1z M470.9,206.4c-2.4-0.1-4.3-2.2-4.1-4.6c0.1-2.4,2.2-4.3,4.6-4.1c2.3,0.1,4.1,2.1,4.1,4.4
			C475.5,204.6,473.4,206.5,470.9,206.4"/>
		<path d="M497,252.6c-7.4,0-10.3-5.1-10.3-10.5v-23.3h-4.2v-5.6h4.2v-8.6l8.5-2.5v11.1h6.1v5.6h-6.1v22.8c0,3,1.2,5.1,4.1,5.1
			c0.7,0,1.4-0.1,2-0.4v5.5C499.9,252.3,498.5,252.6,497,252.6"/>
		<path d="M520.6,267.7h-9l6.1-15.6l-12.4-39h9l6.5,25.3c0.5,1.8,0.7,3.7,0.8,5.6h0.2c0.2-1.9,0.5-3.7,1-5.6l7-25.3h7.9L520.6,267.7
			z"/>
		<polygon points="245,274.7 245,324.5 265.8,324.5 265.8,320 251.4,320 251.4,274.7 		"/>
		<path d="M285.5,288.8c-7.2,0-8.6,8.3-8.6,16.2c0,7.9,1.5,15.8,8.6,15.8c7.1,0,8.5-8,8.5-15.8C294,297.2,292.7,288.8,285.5,288.8
			 M285.5,325.3c-10.2,0-14.7-8.8-14.7-20.2c0-11.4,4.5-20.3,14.6-20.3s14.7,8.6,14.7,20.3C300.1,316.7,295.6,325.3,285.5,325.3"/>
		<path d="M329.6,324.5v-28c0-3.6-1.5-7.6-7.9-7.6c-2.4-0.1-4.9,0.4-7.1,1.4v34.2h-6.1v-37c4.3-2,9-2.9,13.7-2.7
			c10.5,0,13.5,6,13.5,11.6v28.2L329.6,324.5z"/>
		<path d="M366.4,289.6c-1.5-0.5-3.1-0.7-4.7-0.7c-8.7,0-11.5,7.8-11.5,16.3c0,9.2,3,15.9,10.7,15.9c1.9,0.2,3.7-0.2,5.4-1.1V289.6z
			 M360.7,325.3c-10.7,0-16.5-7.8-16.5-19.6c0-13,6.6-20.5,16.3-20.5c2,0,4,0.3,5.9,0.9v-18.3h6v54.8
			C368.8,324.5,364.7,325.4,360.7,325.3"/>
		<path d="M395.6,288.8c-7.2,0-8.6,8.3-8.6,16.2c0,7.9,1.5,15.8,8.6,15.8c7.1,0,8.5-8,8.5-15.8C404.1,297.2,402.7,288.8,395.6,288.8
			 M395.6,325.3c-10.2,0-14.7-8.8-14.7-20.2c0-11.4,4.5-20.3,14.6-20.3c10.1,0,14.7,8.6,14.7,20.3
			C410.2,316.7,405.7,325.3,395.6,325.3"/>
		<path d="M439.7,324.5v-28c0-3.6-1.5-7.6-7.9-7.6c-2.4-0.1-4.9,0.4-7.1,1.4v34.2h-6.1v-37c4.3-2,9-2.9,13.7-2.7
			c10.5,0,13.5,6,13.5,11.6v28.2L439.7,324.5z"/>
		<path class="st1" d="M142.7,201.4c-16.3,0-31.2,5.5-37.2,8.1c-0.6-1.4-0.6-3-0.1-4.5c1.5-0.2,2.6-1.5,2.4-3
			c-0.1-1.4-1.3-2.4-2.6-2.4c-0.1,0-0.3,0-0.4,0l-0.4,0.1l-0.4,0.2l-0.2,0.1l-0.3,0.2l-0.3,0.2c-0.9,0.9-3.6,4-2,9.9
			c-1,0.5-1.7,1.4-1.9,2.4c-0.8-0.5-1.8-0.6-2.7-0.2c-1,0.5-1.8,1.4-2,2.5c-0.8-0.5-1.8-0.6-2.7-0.3c-1,0.5-1.8,1.4-2,2.6
			c-0.8-0.5-1.8-0.7-2.7-0.3c-1.1,0.5-1.8,1.5-1.9,2.7c-0.8-0.6-1.8-0.7-2.8-0.4c-1.7,0.7-2.4,3.2-1.5,5.7c0.9,2.4,3,3.8,4.8,3.1
			c1-0.4,1.6-1.3,1.8-2.4c0.8,0.7,2,0.9,3,0.5c0.9-0.4,1.6-1.3,1.8-2.3c0.9,0.6,2,0.8,3,0.5c0.9-0.4,1.6-1.3,1.8-2.3
			c0.9,0.6,2,0.8,3,0.4c0.9-0.4,1.6-1.2,1.9-2.2c0.9,0.6,1.9,0.7,2.9,0.3c0.2-0.1,0.3-0.2,0.5-0.3c0.5,1.4,0.4,3-0.3,4.4h-0.1
			c-1.5-0.1-2.8,1.1-2.9,2.6c0,0,0,0.1,0,0.1c0,1.5,1.2,2.7,2.6,2.7c0.5,0,0.9-0.1,1.4-0.3h0.2c1.7-1.2,2.9-3,3.3-5
			c0.5-2.2,0.3-4.5-0.5-6.7c7.4-2.1,15-3.2,22.7-3.2c8.1-0.2,16.1,1.3,23.6,4.2c2.5-4.1,6.6-6.2,9.7-4.5c3,1.7,3.8,6.6,1.7,11.2
			l4.5,4.5h27.1v-0.6C198.8,225.3,189,202.7,142.7,201.4"/>
		<path class="st1" d="M142.3,240.2h-0.8c-10.5,0-23.8,4.4-29.5,6.5c-0.5-1.2-0.5-2.5-0.2-3.8c1.3-0.1,2.2-1.3,2-2.6
			c-0.1-1.2-1.1-2-2.2-2.1c-0.1,0-0.2,0-0.3,0c-0.1,0-0.3,0-0.4,0c-0.1,0-0.2,0.1-0.3,0.2h-0.2l-0.3,0.2l-0.2,0.2
			c-1,0.9-3.1,3.6-1.6,8.5c-0.1,0-0.2,0-0.3,0c-0.8,0.4-1.5,1.1-1.7,2c-0.7-0.3-1.6-0.2-2.3,0.1c-0.8,0.4-1.5,1.1-1.7,2.1
			c-0.7-0.4-1.5-0.4-2.2-0.2c-0.9,0.4-1.5,1.2-1.7,2.1c-0.7-0.4-1.5-0.5-2.3-0.2c-0.9,0.4-1.5,1.2-1.6,2.2c-1-0.8-2.5-0.6-3.3,0.5
			c-0.1,0.2-0.3,0.4-0.3,0.6c-0.4,1.1-0.4,2.3,0,3.4c0.8,2.1,2.6,3.3,4.1,2.7c0.8-0.4,1.4-1.1,1.5-2c0.7,0.6,1.7,0.7,2.5,0.4
			c0.8-0.4,1.3-1.1,1.5-1.9c0.7,0.5,1.7,0.7,2.5,0.4c0.8-0.4,1.3-1,1.5-1.8c0.7,0.5,1.6,0.6,2.4,0.3c0.7-0.4,1.3-1,1.5-1.8
			c0.7,0.4,1.6,0.5,2.4,0.2c0.2-0.1,0.4-0.2,0.6-0.4c0.3,0.9,0.3,1.9-0.1,2.9l0,0c-1.2-0.3-2.5,0.5-2.8,1.7
			c-0.3,1.2,0.5,2.5,1.7,2.8c0.3,0.1,0.7,0.1,1,0c0.4,0,0.8-0.1,1.1-0.3h0.2c1.4-1,2.4-2.5,2.7-4.2c0.4-1.6,0.3-3.3-0.2-4.8
			c6.3-1.9,12.8-2.9,19.3-2.9c5.3-0.1,10.6,0.8,15.6,2.6c2.4-3.8,6.3-5.6,9-4.1c2.7,1.6,3.6,5.8,2,9.8l4.2,3.9h21.8V263
			C187.3,259.5,179.5,241.3,142.3,240.2"/>
		<path class="st1" d="M141.5,274h-0.4c-7.4,0.1-14.7,1.7-21.5,4.5l-0.6,0.2c-0.5-1-0.6-2.1-0.2-3.2c1.1-0.1,1.9-1.1,1.8-2.3
			c-0.1-1-1-1.8-2-1.8c-0.1,0-0.2,0-0.3,0c-0.1,0-0.2,0-0.3,0l-0.3,0.1h-0.1l-0.3,0.2l-0.2,0.2c-0.6,0.6-2.6,2.9-1.4,7.1l0,0
			c-0.7,0.3-1.2,0.9-1.3,1.6c-0.5-0.3-1.2-0.3-1.7-0.1c-0.7,0.3-1.2,0.9-1.3,1.6c-0.5-0.3-1.2-0.4-1.8-0.2c-0.7,0.3-1.2,0.9-1.3,1.7
			c-0.5-0.3-1.2-0.4-1.8-0.2c-0.7,0.3-1.2,1-1.3,1.7c-0.5-0.4-1.2-0.4-1.8-0.2c-0.5,0.2-0.9,0.6-1.1,1.2c-0.4,0.9-0.4,1.9,0,2.8
			c0.6,1.7,2.1,2.7,3.4,2.2c0.6-0.3,1.1-0.8,1.2-1.5c0.6,0.4,1.3,0.5,2,0.3c0.6-0.3,1.1-0.8,1.2-1.5c0.9,0.7,2.2,0.5,2.9-0.4
			c0.1-0.2,0.2-0.4,0.3-0.6c0.6,0.4,1.3,0.5,1.9,0.2c0.6-0.3,1.1-0.8,1.3-1.4c0.6,0.3,1.3,0.4,1.9,0.2c0.1,0,0.3-0.1,0.4-0.2
			c0.3,0.9,0.2,1.8-0.2,2.6c-1.1,0-2,0.9-2,2c0,1.1,0.9,2,2,2c0.3,0,0.6-0.1,0.9-0.3l0.2-0.1c1.3-0.8,2.1-2.1,2.4-3.6
			c0.3-1.4,0.3-2.9-0.2-4.3c4.7-1.4,9.6-2.1,14.5-2.2c3.5-0.1,6.9,0.4,10.2,1.5c2-3,5.1-4.3,7.4-3s3,4.6,1.8,8l3.1,2.6h16.5v-0.5
			C175.4,287.6,169.4,274.6,141.5,274"/>
		<path class="st1" d="M139.7,178.8c-9.4,0-16.8-1.6-16.8-3.6c0-2.5,8.5-3.6,16.8-3.6c8.1,0,16.8,1.2,16.8,3.6
			C156.6,177.2,149.2,178.8,139.7,178.8 M164.8,147.9c-0.5-0.2-1-0.4-1.5-0.4c-1.5,0-2.8,0.9-3.4,2.2c-0.2,0.5-0.3,1-0.3,1.5l-2,0.8
			l1.3,3.8c-1.5,2.8-3.4,5.5-4.5,7.1c-3.6-1.1-7.4-1.8-11.2-2.1c-0.2-1.3-1-6-1.5-10.4l2.8-2.9L143,146c0.9-1.9,0-4.1-1.8-5
			c-1.9-0.9-4.1,0-5,1.8c-0.2,0.5-0.4,1.1-0.3,1.6c0,0.5,0.1,1,0.3,1.5l-1.5,1.6l2.8,2.9c-0.4,4.3-1.2,9.1-1.5,10.5
			c-3.7,0.1-7.4,0.8-11,1.9c-1.1-1.5-2.8-4.3-4.4-7.1l1.3-3.8l-2-0.8c0-0.5-0.1-1-0.3-1.5c-0.6-1.3-1.9-2.2-3.4-2.2
			c-0.5,0-1,0.2-1.5,0.4c-1.9,1-2.7,3.2-1.8,5.1c0.2,0.5,0.5,0.9,0.9,1.2l-0.7,2.1l3.7,1.4c1.5,3.4,3.6,17.3,3.6,17.4
			c0.7,4.1,8.9,7.1,19.5,7.1s18.7-2.9,19.4-7.1c0.1-0.5,0.2-1.3,0.4-2.3c0.7-4.4,2-12.5,3.2-15.2l3.7-1.4l-0.8-2.1
			c0.4-0.3,0.7-0.8,0.9-1.2C167.4,151,166.6,148.8,164.8,147.9"/>
	</g>
</g>
</svg>
